<svg width="32" height="32" viewBox="0 0 32 32" fill="none" xmlns="http://www.w3.org/2000/svg">
  <!-- Cañita de azúcar estilizada -->
  <defs>
    <linearGradient id="caneGradient" x1="0%" y1="0%" x2="100%" y2="100%">
      <stop offset="0%" style="stop-color:#22c55e;stop-opacity:1" />
      <stop offset="50%" style="stop-color:#16a34a;stop-opacity:1" />
      <stop offset="100%" style="stop-color:#15803d;stop-opacity:1" />
    </linearGradient>
    <linearGradient id="leafGradient" x1="0%" y1="0%" x2="100%" y2="100%">
      <stop offset="0%" style="stop-color:#84cc16;stop-opacity:1" />
      <stop offset="100%" style="stop-color:#65a30d;stop-opacity:1" />
    </linearGradient>
  </defs>
  
  <!-- Tallo principal de la caña -->
  <rect x="14" y="4" width="4" height="20" rx="2" fill="url(#caneGradient)" />
  
  <!-- Nudos de la caña -->
  <rect x="13" y="8" width="6" height="1" rx="0.5" fill="#15803d" />
  <rect x="13" y="12" width="6" height="1" rx="0.5" fill="#15803d" />
  <rect x="13" y="16" width="6" height="1" rx="0.5" fill="#15803d" />
  <rect x="13" y="20" width="6" height="1" rx="0.5" fill="#15803d" />
  
  <!-- Hojas de la caña -->
  <path d="M16 4 L20 2 L18 6 L16 4 Z" fill="url(#leafGradient)" />
  <path d="M16 4 L12 2 L14 6 L16 4 Z" fill="url(#leafGradient)" />
  <path d="M16 8 L22 6 L20 10 L16 8 Z" fill="url(#leafGradient)" />
  <path d="M16 8 L10 6 L12 10 L16 8 Z" fill="url(#leafGradient)" />
  
  <!-- Detalles decorativos -->
  <circle cx="16" cy="26" r="2" fill="#fbbf24" />
  <circle cx="16" cy="26" r="1" fill="#f59e0b" />
  
  <!-- Efecto de brillo -->
  <rect x="15" y="4" width="2" height="20" rx="1" fill="#ffffff" opacity="0.3" />
</svg>
